%TF.GenerationSoftware,KiCad,Pcbnew,8.0.5*%
%TF.CreationDate,2024-10-27T13:39:58+01:00*%
%TF.ProjectId,V4.0HackPad,56342e30-4861-4636-9b50-61642e6b6963,3*%
%TF.SameCoordinates,Original*%
%TF.FileFunction,Soldermask,Bot*%
%TF.FilePolarity,Negative*%
%FSLAX46Y46*%
G04 Gerber Fmt 4.6, Leading zero omitted, Abs format (unit mm)*
G04 Created by KiCad (PCBNEW 8.0.5) date 2024-10-27 13:39:58*
%MOMM*%
%LPD*%
G01*
G04 APERTURE LIST*
%ADD10C,1.500000*%
%ADD11R,2.000000X2.000000*%
%ADD12C,2.000000*%
%ADD13R,3.200000X2.000000*%
%ADD14C,1.750000*%
%ADD15C,4.000000*%
%ADD16C,2.500000*%
%ADD17R,1.600000X1.600000*%
%ADD18C,1.600000*%
%ADD19O,1.600000X1.600000*%
G04 APERTURE END LIST*
D10*
%TO.C,SW1*%
X107000000Y-55000000D03*
X107000000Y-60000000D03*
D11*
X92500000Y-55000000D03*
D12*
X92500000Y-60000000D03*
X92500000Y-57500000D03*
D13*
X100000000Y-51900000D03*
X100000000Y-63100000D03*
%TD*%
D14*
%TO.C,S14*%
X159090000Y-97170000D03*
D15*
X164170000Y-97170000D03*
D14*
X169250000Y-97170000D03*
D16*
X160360000Y-94630000D03*
X166710000Y-92090000D03*
%TD*%
D14*
%TO.C,S2*%
X101990000Y-97260000D03*
D15*
X107070000Y-97260000D03*
D14*
X112150000Y-97260000D03*
D16*
X103260000Y-94720000D03*
X109610000Y-92180000D03*
%TD*%
D14*
%TO.C,S11*%
X140040000Y-116210000D03*
D15*
X145120000Y-116210000D03*
D14*
X150200000Y-116210000D03*
D16*
X141310000Y-113670000D03*
X147660000Y-111130000D03*
%TD*%
D14*
%TO.C,S10*%
X140040000Y-97210000D03*
D15*
X145120000Y-97210000D03*
D14*
X150200000Y-97210000D03*
D16*
X141310000Y-94670000D03*
X147660000Y-92130000D03*
%TD*%
D17*
%TO.C,U1*%
X128130000Y-49340000D03*
D18*
X128130000Y-51880000D03*
X128130000Y-54420000D03*
X128130000Y-56960000D03*
X128130000Y-59500000D03*
X128130000Y-62040000D03*
X128130000Y-64580000D03*
X143370000Y-64580000D03*
X143370000Y-62040000D03*
X143370000Y-59500000D03*
X143370000Y-56960000D03*
X143370000Y-54420000D03*
X143370000Y-51880000D03*
X143370000Y-49340000D03*
%TD*%
D14*
%TO.C,S5*%
X120990000Y-78150000D03*
D15*
X126070000Y-78150000D03*
D14*
X131150000Y-78150000D03*
D16*
X122260000Y-75610000D03*
X128610000Y-73070000D03*
%TD*%
D14*
%TO.C,S15*%
X159090000Y-116170000D03*
D15*
X164170000Y-116170000D03*
D14*
X169250000Y-116170000D03*
D16*
X160360000Y-113630000D03*
X166710000Y-111090000D03*
%TD*%
D14*
%TO.C,S16*%
X159090000Y-135210000D03*
D15*
X164170000Y-135210000D03*
D14*
X169250000Y-135210000D03*
D16*
X160360000Y-132670000D03*
X166710000Y-130130000D03*
%TD*%
D14*
%TO.C,S13*%
X159090000Y-78110000D03*
D15*
X164170000Y-78110000D03*
D14*
X169250000Y-78110000D03*
D16*
X160360000Y-75570000D03*
X166710000Y-73030000D03*
%TD*%
D14*
%TO.C,S8*%
X121000000Y-135250000D03*
D15*
X126080000Y-135250000D03*
D14*
X131160000Y-135250000D03*
D16*
X122270000Y-132710000D03*
X128620000Y-130170000D03*
%TD*%
D14*
%TO.C,S3*%
X101990000Y-116260000D03*
D15*
X107070000Y-116260000D03*
D14*
X112150000Y-116260000D03*
D16*
X103260000Y-113720000D03*
X109610000Y-111180000D03*
%TD*%
D14*
%TO.C,S4*%
X101990000Y-135300000D03*
D15*
X107070000Y-135300000D03*
D14*
X112150000Y-135300000D03*
D16*
X103260000Y-132760000D03*
X109610000Y-130220000D03*
%TD*%
D14*
%TO.C,S12*%
X140040000Y-135250000D03*
D15*
X145120000Y-135250000D03*
D14*
X150200000Y-135250000D03*
D16*
X141310000Y-132710000D03*
X147660000Y-130170000D03*
%TD*%
D14*
%TO.C,S6*%
X121000000Y-97210000D03*
D15*
X126080000Y-97210000D03*
D14*
X131160000Y-97210000D03*
D16*
X122270000Y-94670000D03*
X128620000Y-92130000D03*
%TD*%
D14*
%TO.C,S1*%
X101990000Y-78200000D03*
D15*
X107070000Y-78200000D03*
D14*
X112150000Y-78200000D03*
D16*
X103260000Y-75660000D03*
X109610000Y-73120000D03*
%TD*%
D14*
%TO.C,S7*%
X121000000Y-116210000D03*
D15*
X126080000Y-116210000D03*
D14*
X131160000Y-116210000D03*
D16*
X122270000Y-113670000D03*
X128620000Y-111130000D03*
%TD*%
D14*
%TO.C,S9*%
X140090000Y-78110000D03*
D15*
X145170000Y-78110000D03*
D14*
X150250000Y-78110000D03*
D16*
X141360000Y-75570000D03*
X147710000Y-73030000D03*
%TD*%
D17*
%TO.C,D16*%
X173831250Y-139541250D03*
D19*
X173831250Y-131921250D03*
%TD*%
D17*
%TO.C,D7*%
X135731250Y-120491250D03*
D19*
X135731250Y-112871250D03*
%TD*%
D17*
%TO.C,D5*%
X135731250Y-82391250D03*
D19*
X135731250Y-74771250D03*
%TD*%
D17*
%TO.C,D12*%
X154781250Y-139541250D03*
D19*
X154781250Y-131921250D03*
%TD*%
D17*
%TO.C,D1*%
X116500000Y-82410000D03*
D19*
X116500000Y-74790000D03*
%TD*%
D17*
%TO.C,D10*%
X154781250Y-101441250D03*
D19*
X154781250Y-93821250D03*
%TD*%
D17*
%TO.C,D14*%
X173831250Y-101441250D03*
D19*
X173831250Y-93821250D03*
%TD*%
D17*
%TO.C,D13*%
X173831250Y-82391250D03*
D19*
X173831250Y-74771250D03*
%TD*%
D17*
%TO.C,D6*%
X135731250Y-101441250D03*
D19*
X135731250Y-93821250D03*
%TD*%
D17*
%TO.C,D11*%
X154781250Y-120491250D03*
D19*
X154781250Y-112871250D03*
%TD*%
D17*
%TO.C,D2*%
X116681250Y-101441250D03*
D19*
X116681250Y-93821250D03*
%TD*%
D17*
%TO.C,D4*%
X116681250Y-139541250D03*
D19*
X116681250Y-131921250D03*
%TD*%
D17*
%TO.C,D15*%
X173831250Y-120491250D03*
D19*
X173831250Y-112871250D03*
%TD*%
D17*
%TO.C,D8*%
X135731250Y-139541250D03*
D19*
X135731250Y-131921250D03*
%TD*%
D17*
%TO.C,D3*%
X116681250Y-120491250D03*
D19*
X116681250Y-112871250D03*
%TD*%
D17*
%TO.C,D9*%
X154781250Y-82391250D03*
D19*
X154781250Y-74771250D03*
%TD*%
M02*
