%TF.GenerationSoftware,KiCad,Pcbnew,8.0.5*%
%TF.CreationDate,2024-10-27T13:39:58+01:00*%
%TF.ProjectId,V4.0HackPad,56342e30-4861-4636-9b50-61642e6b6963,3*%
%TF.SameCoordinates,Original*%
%TF.FileFunction,Legend,Top*%
%TF.FilePolarity,Positive*%
%FSLAX46Y46*%
G04 Gerber Fmt 4.6, Leading zero omitted, Abs format (unit mm)*
G04 Created by KiCad (PCBNEW 8.0.5) date 2024-10-27 13:39:58*
%MOMM*%
%LPD*%
G01*
G04 APERTURE LIST*
%ADD10C,0.150000*%
%ADD11C,0.120000*%
G04 APERTURE END LIST*
D10*
X93966667Y-50707200D02*
X94109524Y-50754819D01*
X94109524Y-50754819D02*
X94347619Y-50754819D01*
X94347619Y-50754819D02*
X94442857Y-50707200D01*
X94442857Y-50707200D02*
X94490476Y-50659580D01*
X94490476Y-50659580D02*
X94538095Y-50564342D01*
X94538095Y-50564342D02*
X94538095Y-50469104D01*
X94538095Y-50469104D02*
X94490476Y-50373866D01*
X94490476Y-50373866D02*
X94442857Y-50326247D01*
X94442857Y-50326247D02*
X94347619Y-50278628D01*
X94347619Y-50278628D02*
X94157143Y-50231009D01*
X94157143Y-50231009D02*
X94061905Y-50183390D01*
X94061905Y-50183390D02*
X94014286Y-50135771D01*
X94014286Y-50135771D02*
X93966667Y-50040533D01*
X93966667Y-50040533D02*
X93966667Y-49945295D01*
X93966667Y-49945295D02*
X94014286Y-49850057D01*
X94014286Y-49850057D02*
X94061905Y-49802438D01*
X94061905Y-49802438D02*
X94157143Y-49754819D01*
X94157143Y-49754819D02*
X94395238Y-49754819D01*
X94395238Y-49754819D02*
X94538095Y-49802438D01*
X94871429Y-49754819D02*
X95109524Y-50754819D01*
X95109524Y-50754819D02*
X95300000Y-50040533D01*
X95300000Y-50040533D02*
X95490476Y-50754819D01*
X95490476Y-50754819D02*
X95728572Y-49754819D01*
X96633333Y-50754819D02*
X96061905Y-50754819D01*
X96347619Y-50754819D02*
X96347619Y-49754819D01*
X96347619Y-49754819D02*
X96252381Y-49897676D01*
X96252381Y-49897676D02*
X96157143Y-49992914D01*
X96157143Y-49992914D02*
X96061905Y-50040533D01*
X162931905Y-89577200D02*
X163074762Y-89624819D01*
X163074762Y-89624819D02*
X163312857Y-89624819D01*
X163312857Y-89624819D02*
X163408095Y-89577200D01*
X163408095Y-89577200D02*
X163455714Y-89529580D01*
X163455714Y-89529580D02*
X163503333Y-89434342D01*
X163503333Y-89434342D02*
X163503333Y-89339104D01*
X163503333Y-89339104D02*
X163455714Y-89243866D01*
X163455714Y-89243866D02*
X163408095Y-89196247D01*
X163408095Y-89196247D02*
X163312857Y-89148628D01*
X163312857Y-89148628D02*
X163122381Y-89101009D01*
X163122381Y-89101009D02*
X163027143Y-89053390D01*
X163027143Y-89053390D02*
X162979524Y-89005771D01*
X162979524Y-89005771D02*
X162931905Y-88910533D01*
X162931905Y-88910533D02*
X162931905Y-88815295D01*
X162931905Y-88815295D02*
X162979524Y-88720057D01*
X162979524Y-88720057D02*
X163027143Y-88672438D01*
X163027143Y-88672438D02*
X163122381Y-88624819D01*
X163122381Y-88624819D02*
X163360476Y-88624819D01*
X163360476Y-88624819D02*
X163503333Y-88672438D01*
X164455714Y-89624819D02*
X163884286Y-89624819D01*
X164170000Y-89624819D02*
X164170000Y-88624819D01*
X164170000Y-88624819D02*
X164074762Y-88767676D01*
X164074762Y-88767676D02*
X163979524Y-88862914D01*
X163979524Y-88862914D02*
X163884286Y-88910533D01*
X165312857Y-88958152D02*
X165312857Y-89624819D01*
X165074762Y-88577200D02*
X164836667Y-89291485D01*
X164836667Y-89291485D02*
X165455714Y-89291485D01*
X105728095Y-89617200D02*
X105870952Y-89664819D01*
X105870952Y-89664819D02*
X106109047Y-89664819D01*
X106109047Y-89664819D02*
X106204285Y-89617200D01*
X106204285Y-89617200D02*
X106251904Y-89569580D01*
X106251904Y-89569580D02*
X106299523Y-89474342D01*
X106299523Y-89474342D02*
X106299523Y-89379104D01*
X106299523Y-89379104D02*
X106251904Y-89283866D01*
X106251904Y-89283866D02*
X106204285Y-89236247D01*
X106204285Y-89236247D02*
X106109047Y-89188628D01*
X106109047Y-89188628D02*
X105918571Y-89141009D01*
X105918571Y-89141009D02*
X105823333Y-89093390D01*
X105823333Y-89093390D02*
X105775714Y-89045771D01*
X105775714Y-89045771D02*
X105728095Y-88950533D01*
X105728095Y-88950533D02*
X105728095Y-88855295D01*
X105728095Y-88855295D02*
X105775714Y-88760057D01*
X105775714Y-88760057D02*
X105823333Y-88712438D01*
X105823333Y-88712438D02*
X105918571Y-88664819D01*
X105918571Y-88664819D02*
X106156666Y-88664819D01*
X106156666Y-88664819D02*
X106299523Y-88712438D01*
X106680476Y-88760057D02*
X106728095Y-88712438D01*
X106728095Y-88712438D02*
X106823333Y-88664819D01*
X106823333Y-88664819D02*
X107061428Y-88664819D01*
X107061428Y-88664819D02*
X107156666Y-88712438D01*
X107156666Y-88712438D02*
X107204285Y-88760057D01*
X107204285Y-88760057D02*
X107251904Y-88855295D01*
X107251904Y-88855295D02*
X107251904Y-88950533D01*
X107251904Y-88950533D02*
X107204285Y-89093390D01*
X107204285Y-89093390D02*
X106632857Y-89664819D01*
X106632857Y-89664819D02*
X107251904Y-89664819D01*
X143881905Y-108617200D02*
X144024762Y-108664819D01*
X144024762Y-108664819D02*
X144262857Y-108664819D01*
X144262857Y-108664819D02*
X144358095Y-108617200D01*
X144358095Y-108617200D02*
X144405714Y-108569580D01*
X144405714Y-108569580D02*
X144453333Y-108474342D01*
X144453333Y-108474342D02*
X144453333Y-108379104D01*
X144453333Y-108379104D02*
X144405714Y-108283866D01*
X144405714Y-108283866D02*
X144358095Y-108236247D01*
X144358095Y-108236247D02*
X144262857Y-108188628D01*
X144262857Y-108188628D02*
X144072381Y-108141009D01*
X144072381Y-108141009D02*
X143977143Y-108093390D01*
X143977143Y-108093390D02*
X143929524Y-108045771D01*
X143929524Y-108045771D02*
X143881905Y-107950533D01*
X143881905Y-107950533D02*
X143881905Y-107855295D01*
X143881905Y-107855295D02*
X143929524Y-107760057D01*
X143929524Y-107760057D02*
X143977143Y-107712438D01*
X143977143Y-107712438D02*
X144072381Y-107664819D01*
X144072381Y-107664819D02*
X144310476Y-107664819D01*
X144310476Y-107664819D02*
X144453333Y-107712438D01*
X145405714Y-108664819D02*
X144834286Y-108664819D01*
X145120000Y-108664819D02*
X145120000Y-107664819D01*
X145120000Y-107664819D02*
X145024762Y-107807676D01*
X145024762Y-107807676D02*
X144929524Y-107902914D01*
X144929524Y-107902914D02*
X144834286Y-107950533D01*
X146358095Y-108664819D02*
X145786667Y-108664819D01*
X146072381Y-108664819D02*
X146072381Y-107664819D01*
X146072381Y-107664819D02*
X145977143Y-107807676D01*
X145977143Y-107807676D02*
X145881905Y-107902914D01*
X145881905Y-107902914D02*
X145786667Y-107950533D01*
X143881905Y-89617200D02*
X144024762Y-89664819D01*
X144024762Y-89664819D02*
X144262857Y-89664819D01*
X144262857Y-89664819D02*
X144358095Y-89617200D01*
X144358095Y-89617200D02*
X144405714Y-89569580D01*
X144405714Y-89569580D02*
X144453333Y-89474342D01*
X144453333Y-89474342D02*
X144453333Y-89379104D01*
X144453333Y-89379104D02*
X144405714Y-89283866D01*
X144405714Y-89283866D02*
X144358095Y-89236247D01*
X144358095Y-89236247D02*
X144262857Y-89188628D01*
X144262857Y-89188628D02*
X144072381Y-89141009D01*
X144072381Y-89141009D02*
X143977143Y-89093390D01*
X143977143Y-89093390D02*
X143929524Y-89045771D01*
X143929524Y-89045771D02*
X143881905Y-88950533D01*
X143881905Y-88950533D02*
X143881905Y-88855295D01*
X143881905Y-88855295D02*
X143929524Y-88760057D01*
X143929524Y-88760057D02*
X143977143Y-88712438D01*
X143977143Y-88712438D02*
X144072381Y-88664819D01*
X144072381Y-88664819D02*
X144310476Y-88664819D01*
X144310476Y-88664819D02*
X144453333Y-88712438D01*
X145405714Y-89664819D02*
X144834286Y-89664819D01*
X145120000Y-89664819D02*
X145120000Y-88664819D01*
X145120000Y-88664819D02*
X145024762Y-88807676D01*
X145024762Y-88807676D02*
X144929524Y-88902914D01*
X144929524Y-88902914D02*
X144834286Y-88950533D01*
X146024762Y-88664819D02*
X146120000Y-88664819D01*
X146120000Y-88664819D02*
X146215238Y-88712438D01*
X146215238Y-88712438D02*
X146262857Y-88760057D01*
X146262857Y-88760057D02*
X146310476Y-88855295D01*
X146310476Y-88855295D02*
X146358095Y-89045771D01*
X146358095Y-89045771D02*
X146358095Y-89283866D01*
X146358095Y-89283866D02*
X146310476Y-89474342D01*
X146310476Y-89474342D02*
X146262857Y-89569580D01*
X146262857Y-89569580D02*
X146215238Y-89617200D01*
X146215238Y-89617200D02*
X146120000Y-89664819D01*
X146120000Y-89664819D02*
X146024762Y-89664819D01*
X146024762Y-89664819D02*
X145929524Y-89617200D01*
X145929524Y-89617200D02*
X145881905Y-89569580D01*
X145881905Y-89569580D02*
X145834286Y-89474342D01*
X145834286Y-89474342D02*
X145786667Y-89283866D01*
X145786667Y-89283866D02*
X145786667Y-89045771D01*
X145786667Y-89045771D02*
X145834286Y-88855295D01*
X145834286Y-88855295D02*
X145881905Y-88760057D01*
X145881905Y-88760057D02*
X145929524Y-88712438D01*
X145929524Y-88712438D02*
X146024762Y-88664819D01*
X125308095Y-70557200D02*
X125450952Y-70604819D01*
X125450952Y-70604819D02*
X125689047Y-70604819D01*
X125689047Y-70604819D02*
X125784285Y-70557200D01*
X125784285Y-70557200D02*
X125831904Y-70509580D01*
X125831904Y-70509580D02*
X125879523Y-70414342D01*
X125879523Y-70414342D02*
X125879523Y-70319104D01*
X125879523Y-70319104D02*
X125831904Y-70223866D01*
X125831904Y-70223866D02*
X125784285Y-70176247D01*
X125784285Y-70176247D02*
X125689047Y-70128628D01*
X125689047Y-70128628D02*
X125498571Y-70081009D01*
X125498571Y-70081009D02*
X125403333Y-70033390D01*
X125403333Y-70033390D02*
X125355714Y-69985771D01*
X125355714Y-69985771D02*
X125308095Y-69890533D01*
X125308095Y-69890533D02*
X125308095Y-69795295D01*
X125308095Y-69795295D02*
X125355714Y-69700057D01*
X125355714Y-69700057D02*
X125403333Y-69652438D01*
X125403333Y-69652438D02*
X125498571Y-69604819D01*
X125498571Y-69604819D02*
X125736666Y-69604819D01*
X125736666Y-69604819D02*
X125879523Y-69652438D01*
X126784285Y-69604819D02*
X126308095Y-69604819D01*
X126308095Y-69604819D02*
X126260476Y-70081009D01*
X126260476Y-70081009D02*
X126308095Y-70033390D01*
X126308095Y-70033390D02*
X126403333Y-69985771D01*
X126403333Y-69985771D02*
X126641428Y-69985771D01*
X126641428Y-69985771D02*
X126736666Y-70033390D01*
X126736666Y-70033390D02*
X126784285Y-70081009D01*
X126784285Y-70081009D02*
X126831904Y-70176247D01*
X126831904Y-70176247D02*
X126831904Y-70414342D01*
X126831904Y-70414342D02*
X126784285Y-70509580D01*
X126784285Y-70509580D02*
X126736666Y-70557200D01*
X126736666Y-70557200D02*
X126641428Y-70604819D01*
X126641428Y-70604819D02*
X126403333Y-70604819D01*
X126403333Y-70604819D02*
X126308095Y-70557200D01*
X126308095Y-70557200D02*
X126260476Y-70509580D01*
X162931905Y-108577200D02*
X163074762Y-108624819D01*
X163074762Y-108624819D02*
X163312857Y-108624819D01*
X163312857Y-108624819D02*
X163408095Y-108577200D01*
X163408095Y-108577200D02*
X163455714Y-108529580D01*
X163455714Y-108529580D02*
X163503333Y-108434342D01*
X163503333Y-108434342D02*
X163503333Y-108339104D01*
X163503333Y-108339104D02*
X163455714Y-108243866D01*
X163455714Y-108243866D02*
X163408095Y-108196247D01*
X163408095Y-108196247D02*
X163312857Y-108148628D01*
X163312857Y-108148628D02*
X163122381Y-108101009D01*
X163122381Y-108101009D02*
X163027143Y-108053390D01*
X163027143Y-108053390D02*
X162979524Y-108005771D01*
X162979524Y-108005771D02*
X162931905Y-107910533D01*
X162931905Y-107910533D02*
X162931905Y-107815295D01*
X162931905Y-107815295D02*
X162979524Y-107720057D01*
X162979524Y-107720057D02*
X163027143Y-107672438D01*
X163027143Y-107672438D02*
X163122381Y-107624819D01*
X163122381Y-107624819D02*
X163360476Y-107624819D01*
X163360476Y-107624819D02*
X163503333Y-107672438D01*
X164455714Y-108624819D02*
X163884286Y-108624819D01*
X164170000Y-108624819D02*
X164170000Y-107624819D01*
X164170000Y-107624819D02*
X164074762Y-107767676D01*
X164074762Y-107767676D02*
X163979524Y-107862914D01*
X163979524Y-107862914D02*
X163884286Y-107910533D01*
X165360476Y-107624819D02*
X164884286Y-107624819D01*
X164884286Y-107624819D02*
X164836667Y-108101009D01*
X164836667Y-108101009D02*
X164884286Y-108053390D01*
X164884286Y-108053390D02*
X164979524Y-108005771D01*
X164979524Y-108005771D02*
X165217619Y-108005771D01*
X165217619Y-108005771D02*
X165312857Y-108053390D01*
X165312857Y-108053390D02*
X165360476Y-108101009D01*
X165360476Y-108101009D02*
X165408095Y-108196247D01*
X165408095Y-108196247D02*
X165408095Y-108434342D01*
X165408095Y-108434342D02*
X165360476Y-108529580D01*
X165360476Y-108529580D02*
X165312857Y-108577200D01*
X165312857Y-108577200D02*
X165217619Y-108624819D01*
X165217619Y-108624819D02*
X164979524Y-108624819D01*
X164979524Y-108624819D02*
X164884286Y-108577200D01*
X164884286Y-108577200D02*
X164836667Y-108529580D01*
X162931905Y-127617200D02*
X163074762Y-127664819D01*
X163074762Y-127664819D02*
X163312857Y-127664819D01*
X163312857Y-127664819D02*
X163408095Y-127617200D01*
X163408095Y-127617200D02*
X163455714Y-127569580D01*
X163455714Y-127569580D02*
X163503333Y-127474342D01*
X163503333Y-127474342D02*
X163503333Y-127379104D01*
X163503333Y-127379104D02*
X163455714Y-127283866D01*
X163455714Y-127283866D02*
X163408095Y-127236247D01*
X163408095Y-127236247D02*
X163312857Y-127188628D01*
X163312857Y-127188628D02*
X163122381Y-127141009D01*
X163122381Y-127141009D02*
X163027143Y-127093390D01*
X163027143Y-127093390D02*
X162979524Y-127045771D01*
X162979524Y-127045771D02*
X162931905Y-126950533D01*
X162931905Y-126950533D02*
X162931905Y-126855295D01*
X162931905Y-126855295D02*
X162979524Y-126760057D01*
X162979524Y-126760057D02*
X163027143Y-126712438D01*
X163027143Y-126712438D02*
X163122381Y-126664819D01*
X163122381Y-126664819D02*
X163360476Y-126664819D01*
X163360476Y-126664819D02*
X163503333Y-126712438D01*
X164455714Y-127664819D02*
X163884286Y-127664819D01*
X164170000Y-127664819D02*
X164170000Y-126664819D01*
X164170000Y-126664819D02*
X164074762Y-126807676D01*
X164074762Y-126807676D02*
X163979524Y-126902914D01*
X163979524Y-126902914D02*
X163884286Y-126950533D01*
X165312857Y-126664819D02*
X165122381Y-126664819D01*
X165122381Y-126664819D02*
X165027143Y-126712438D01*
X165027143Y-126712438D02*
X164979524Y-126760057D01*
X164979524Y-126760057D02*
X164884286Y-126902914D01*
X164884286Y-126902914D02*
X164836667Y-127093390D01*
X164836667Y-127093390D02*
X164836667Y-127474342D01*
X164836667Y-127474342D02*
X164884286Y-127569580D01*
X164884286Y-127569580D02*
X164931905Y-127617200D01*
X164931905Y-127617200D02*
X165027143Y-127664819D01*
X165027143Y-127664819D02*
X165217619Y-127664819D01*
X165217619Y-127664819D02*
X165312857Y-127617200D01*
X165312857Y-127617200D02*
X165360476Y-127569580D01*
X165360476Y-127569580D02*
X165408095Y-127474342D01*
X165408095Y-127474342D02*
X165408095Y-127236247D01*
X165408095Y-127236247D02*
X165360476Y-127141009D01*
X165360476Y-127141009D02*
X165312857Y-127093390D01*
X165312857Y-127093390D02*
X165217619Y-127045771D01*
X165217619Y-127045771D02*
X165027143Y-127045771D01*
X165027143Y-127045771D02*
X164931905Y-127093390D01*
X164931905Y-127093390D02*
X164884286Y-127141009D01*
X164884286Y-127141009D02*
X164836667Y-127236247D01*
X162931905Y-70517200D02*
X163074762Y-70564819D01*
X163074762Y-70564819D02*
X163312857Y-70564819D01*
X163312857Y-70564819D02*
X163408095Y-70517200D01*
X163408095Y-70517200D02*
X163455714Y-70469580D01*
X163455714Y-70469580D02*
X163503333Y-70374342D01*
X163503333Y-70374342D02*
X163503333Y-70279104D01*
X163503333Y-70279104D02*
X163455714Y-70183866D01*
X163455714Y-70183866D02*
X163408095Y-70136247D01*
X163408095Y-70136247D02*
X163312857Y-70088628D01*
X163312857Y-70088628D02*
X163122381Y-70041009D01*
X163122381Y-70041009D02*
X163027143Y-69993390D01*
X163027143Y-69993390D02*
X162979524Y-69945771D01*
X162979524Y-69945771D02*
X162931905Y-69850533D01*
X162931905Y-69850533D02*
X162931905Y-69755295D01*
X162931905Y-69755295D02*
X162979524Y-69660057D01*
X162979524Y-69660057D02*
X163027143Y-69612438D01*
X163027143Y-69612438D02*
X163122381Y-69564819D01*
X163122381Y-69564819D02*
X163360476Y-69564819D01*
X163360476Y-69564819D02*
X163503333Y-69612438D01*
X164455714Y-70564819D02*
X163884286Y-70564819D01*
X164170000Y-70564819D02*
X164170000Y-69564819D01*
X164170000Y-69564819D02*
X164074762Y-69707676D01*
X164074762Y-69707676D02*
X163979524Y-69802914D01*
X163979524Y-69802914D02*
X163884286Y-69850533D01*
X164789048Y-69564819D02*
X165408095Y-69564819D01*
X165408095Y-69564819D02*
X165074762Y-69945771D01*
X165074762Y-69945771D02*
X165217619Y-69945771D01*
X165217619Y-69945771D02*
X165312857Y-69993390D01*
X165312857Y-69993390D02*
X165360476Y-70041009D01*
X165360476Y-70041009D02*
X165408095Y-70136247D01*
X165408095Y-70136247D02*
X165408095Y-70374342D01*
X165408095Y-70374342D02*
X165360476Y-70469580D01*
X165360476Y-70469580D02*
X165312857Y-70517200D01*
X165312857Y-70517200D02*
X165217619Y-70564819D01*
X165217619Y-70564819D02*
X164931905Y-70564819D01*
X164931905Y-70564819D02*
X164836667Y-70517200D01*
X164836667Y-70517200D02*
X164789048Y-70469580D01*
X125318095Y-127657200D02*
X125460952Y-127704819D01*
X125460952Y-127704819D02*
X125699047Y-127704819D01*
X125699047Y-127704819D02*
X125794285Y-127657200D01*
X125794285Y-127657200D02*
X125841904Y-127609580D01*
X125841904Y-127609580D02*
X125889523Y-127514342D01*
X125889523Y-127514342D02*
X125889523Y-127419104D01*
X125889523Y-127419104D02*
X125841904Y-127323866D01*
X125841904Y-127323866D02*
X125794285Y-127276247D01*
X125794285Y-127276247D02*
X125699047Y-127228628D01*
X125699047Y-127228628D02*
X125508571Y-127181009D01*
X125508571Y-127181009D02*
X125413333Y-127133390D01*
X125413333Y-127133390D02*
X125365714Y-127085771D01*
X125365714Y-127085771D02*
X125318095Y-126990533D01*
X125318095Y-126990533D02*
X125318095Y-126895295D01*
X125318095Y-126895295D02*
X125365714Y-126800057D01*
X125365714Y-126800057D02*
X125413333Y-126752438D01*
X125413333Y-126752438D02*
X125508571Y-126704819D01*
X125508571Y-126704819D02*
X125746666Y-126704819D01*
X125746666Y-126704819D02*
X125889523Y-126752438D01*
X126460952Y-127133390D02*
X126365714Y-127085771D01*
X126365714Y-127085771D02*
X126318095Y-127038152D01*
X126318095Y-127038152D02*
X126270476Y-126942914D01*
X126270476Y-126942914D02*
X126270476Y-126895295D01*
X126270476Y-126895295D02*
X126318095Y-126800057D01*
X126318095Y-126800057D02*
X126365714Y-126752438D01*
X126365714Y-126752438D02*
X126460952Y-126704819D01*
X126460952Y-126704819D02*
X126651428Y-126704819D01*
X126651428Y-126704819D02*
X126746666Y-126752438D01*
X126746666Y-126752438D02*
X126794285Y-126800057D01*
X126794285Y-126800057D02*
X126841904Y-126895295D01*
X126841904Y-126895295D02*
X126841904Y-126942914D01*
X126841904Y-126942914D02*
X126794285Y-127038152D01*
X126794285Y-127038152D02*
X126746666Y-127085771D01*
X126746666Y-127085771D02*
X126651428Y-127133390D01*
X126651428Y-127133390D02*
X126460952Y-127133390D01*
X126460952Y-127133390D02*
X126365714Y-127181009D01*
X126365714Y-127181009D02*
X126318095Y-127228628D01*
X126318095Y-127228628D02*
X126270476Y-127323866D01*
X126270476Y-127323866D02*
X126270476Y-127514342D01*
X126270476Y-127514342D02*
X126318095Y-127609580D01*
X126318095Y-127609580D02*
X126365714Y-127657200D01*
X126365714Y-127657200D02*
X126460952Y-127704819D01*
X126460952Y-127704819D02*
X126651428Y-127704819D01*
X126651428Y-127704819D02*
X126746666Y-127657200D01*
X126746666Y-127657200D02*
X126794285Y-127609580D01*
X126794285Y-127609580D02*
X126841904Y-127514342D01*
X126841904Y-127514342D02*
X126841904Y-127323866D01*
X126841904Y-127323866D02*
X126794285Y-127228628D01*
X126794285Y-127228628D02*
X126746666Y-127181009D01*
X126746666Y-127181009D02*
X126651428Y-127133390D01*
X105728095Y-108617200D02*
X105870952Y-108664819D01*
X105870952Y-108664819D02*
X106109047Y-108664819D01*
X106109047Y-108664819D02*
X106204285Y-108617200D01*
X106204285Y-108617200D02*
X106251904Y-108569580D01*
X106251904Y-108569580D02*
X106299523Y-108474342D01*
X106299523Y-108474342D02*
X106299523Y-108379104D01*
X106299523Y-108379104D02*
X106251904Y-108283866D01*
X106251904Y-108283866D02*
X106204285Y-108236247D01*
X106204285Y-108236247D02*
X106109047Y-108188628D01*
X106109047Y-108188628D02*
X105918571Y-108141009D01*
X105918571Y-108141009D02*
X105823333Y-108093390D01*
X105823333Y-108093390D02*
X105775714Y-108045771D01*
X105775714Y-108045771D02*
X105728095Y-107950533D01*
X105728095Y-107950533D02*
X105728095Y-107855295D01*
X105728095Y-107855295D02*
X105775714Y-107760057D01*
X105775714Y-107760057D02*
X105823333Y-107712438D01*
X105823333Y-107712438D02*
X105918571Y-107664819D01*
X105918571Y-107664819D02*
X106156666Y-107664819D01*
X106156666Y-107664819D02*
X106299523Y-107712438D01*
X106632857Y-107664819D02*
X107251904Y-107664819D01*
X107251904Y-107664819D02*
X106918571Y-108045771D01*
X106918571Y-108045771D02*
X107061428Y-108045771D01*
X107061428Y-108045771D02*
X107156666Y-108093390D01*
X107156666Y-108093390D02*
X107204285Y-108141009D01*
X107204285Y-108141009D02*
X107251904Y-108236247D01*
X107251904Y-108236247D02*
X107251904Y-108474342D01*
X107251904Y-108474342D02*
X107204285Y-108569580D01*
X107204285Y-108569580D02*
X107156666Y-108617200D01*
X107156666Y-108617200D02*
X107061428Y-108664819D01*
X107061428Y-108664819D02*
X106775714Y-108664819D01*
X106775714Y-108664819D02*
X106680476Y-108617200D01*
X106680476Y-108617200D02*
X106632857Y-108569580D01*
X105728095Y-127657200D02*
X105870952Y-127704819D01*
X105870952Y-127704819D02*
X106109047Y-127704819D01*
X106109047Y-127704819D02*
X106204285Y-127657200D01*
X106204285Y-127657200D02*
X106251904Y-127609580D01*
X106251904Y-127609580D02*
X106299523Y-127514342D01*
X106299523Y-127514342D02*
X106299523Y-127419104D01*
X106299523Y-127419104D02*
X106251904Y-127323866D01*
X106251904Y-127323866D02*
X106204285Y-127276247D01*
X106204285Y-127276247D02*
X106109047Y-127228628D01*
X106109047Y-127228628D02*
X105918571Y-127181009D01*
X105918571Y-127181009D02*
X105823333Y-127133390D01*
X105823333Y-127133390D02*
X105775714Y-127085771D01*
X105775714Y-127085771D02*
X105728095Y-126990533D01*
X105728095Y-126990533D02*
X105728095Y-126895295D01*
X105728095Y-126895295D02*
X105775714Y-126800057D01*
X105775714Y-126800057D02*
X105823333Y-126752438D01*
X105823333Y-126752438D02*
X105918571Y-126704819D01*
X105918571Y-126704819D02*
X106156666Y-126704819D01*
X106156666Y-126704819D02*
X106299523Y-126752438D01*
X107156666Y-127038152D02*
X107156666Y-127704819D01*
X106918571Y-126657200D02*
X106680476Y-127371485D01*
X106680476Y-127371485D02*
X107299523Y-127371485D01*
X143881905Y-127657200D02*
X144024762Y-127704819D01*
X144024762Y-127704819D02*
X144262857Y-127704819D01*
X144262857Y-127704819D02*
X144358095Y-127657200D01*
X144358095Y-127657200D02*
X144405714Y-127609580D01*
X144405714Y-127609580D02*
X144453333Y-127514342D01*
X144453333Y-127514342D02*
X144453333Y-127419104D01*
X144453333Y-127419104D02*
X144405714Y-127323866D01*
X144405714Y-127323866D02*
X144358095Y-127276247D01*
X144358095Y-127276247D02*
X144262857Y-127228628D01*
X144262857Y-127228628D02*
X144072381Y-127181009D01*
X144072381Y-127181009D02*
X143977143Y-127133390D01*
X143977143Y-127133390D02*
X143929524Y-127085771D01*
X143929524Y-127085771D02*
X143881905Y-126990533D01*
X143881905Y-126990533D02*
X143881905Y-126895295D01*
X143881905Y-126895295D02*
X143929524Y-126800057D01*
X143929524Y-126800057D02*
X143977143Y-126752438D01*
X143977143Y-126752438D02*
X144072381Y-126704819D01*
X144072381Y-126704819D02*
X144310476Y-126704819D01*
X144310476Y-126704819D02*
X144453333Y-126752438D01*
X145405714Y-127704819D02*
X144834286Y-127704819D01*
X145120000Y-127704819D02*
X145120000Y-126704819D01*
X145120000Y-126704819D02*
X145024762Y-126847676D01*
X145024762Y-126847676D02*
X144929524Y-126942914D01*
X144929524Y-126942914D02*
X144834286Y-126990533D01*
X145786667Y-126800057D02*
X145834286Y-126752438D01*
X145834286Y-126752438D02*
X145929524Y-126704819D01*
X145929524Y-126704819D02*
X146167619Y-126704819D01*
X146167619Y-126704819D02*
X146262857Y-126752438D01*
X146262857Y-126752438D02*
X146310476Y-126800057D01*
X146310476Y-126800057D02*
X146358095Y-126895295D01*
X146358095Y-126895295D02*
X146358095Y-126990533D01*
X146358095Y-126990533D02*
X146310476Y-127133390D01*
X146310476Y-127133390D02*
X145739048Y-127704819D01*
X145739048Y-127704819D02*
X146358095Y-127704819D01*
X125318095Y-89617200D02*
X125460952Y-89664819D01*
X125460952Y-89664819D02*
X125699047Y-89664819D01*
X125699047Y-89664819D02*
X125794285Y-89617200D01*
X125794285Y-89617200D02*
X125841904Y-89569580D01*
X125841904Y-89569580D02*
X125889523Y-89474342D01*
X125889523Y-89474342D02*
X125889523Y-89379104D01*
X125889523Y-89379104D02*
X125841904Y-89283866D01*
X125841904Y-89283866D02*
X125794285Y-89236247D01*
X125794285Y-89236247D02*
X125699047Y-89188628D01*
X125699047Y-89188628D02*
X125508571Y-89141009D01*
X125508571Y-89141009D02*
X125413333Y-89093390D01*
X125413333Y-89093390D02*
X125365714Y-89045771D01*
X125365714Y-89045771D02*
X125318095Y-88950533D01*
X125318095Y-88950533D02*
X125318095Y-88855295D01*
X125318095Y-88855295D02*
X125365714Y-88760057D01*
X125365714Y-88760057D02*
X125413333Y-88712438D01*
X125413333Y-88712438D02*
X125508571Y-88664819D01*
X125508571Y-88664819D02*
X125746666Y-88664819D01*
X125746666Y-88664819D02*
X125889523Y-88712438D01*
X126746666Y-88664819D02*
X126556190Y-88664819D01*
X126556190Y-88664819D02*
X126460952Y-88712438D01*
X126460952Y-88712438D02*
X126413333Y-88760057D01*
X126413333Y-88760057D02*
X126318095Y-88902914D01*
X126318095Y-88902914D02*
X126270476Y-89093390D01*
X126270476Y-89093390D02*
X126270476Y-89474342D01*
X126270476Y-89474342D02*
X126318095Y-89569580D01*
X126318095Y-89569580D02*
X126365714Y-89617200D01*
X126365714Y-89617200D02*
X126460952Y-89664819D01*
X126460952Y-89664819D02*
X126651428Y-89664819D01*
X126651428Y-89664819D02*
X126746666Y-89617200D01*
X126746666Y-89617200D02*
X126794285Y-89569580D01*
X126794285Y-89569580D02*
X126841904Y-89474342D01*
X126841904Y-89474342D02*
X126841904Y-89236247D01*
X126841904Y-89236247D02*
X126794285Y-89141009D01*
X126794285Y-89141009D02*
X126746666Y-89093390D01*
X126746666Y-89093390D02*
X126651428Y-89045771D01*
X126651428Y-89045771D02*
X126460952Y-89045771D01*
X126460952Y-89045771D02*
X126365714Y-89093390D01*
X126365714Y-89093390D02*
X126318095Y-89141009D01*
X126318095Y-89141009D02*
X126270476Y-89236247D01*
X105728095Y-70557200D02*
X105870952Y-70604819D01*
X105870952Y-70604819D02*
X106109047Y-70604819D01*
X106109047Y-70604819D02*
X106204285Y-70557200D01*
X106204285Y-70557200D02*
X106251904Y-70509580D01*
X106251904Y-70509580D02*
X106299523Y-70414342D01*
X106299523Y-70414342D02*
X106299523Y-70319104D01*
X106299523Y-70319104D02*
X106251904Y-70223866D01*
X106251904Y-70223866D02*
X106204285Y-70176247D01*
X106204285Y-70176247D02*
X106109047Y-70128628D01*
X106109047Y-70128628D02*
X105918571Y-70081009D01*
X105918571Y-70081009D02*
X105823333Y-70033390D01*
X105823333Y-70033390D02*
X105775714Y-69985771D01*
X105775714Y-69985771D02*
X105728095Y-69890533D01*
X105728095Y-69890533D02*
X105728095Y-69795295D01*
X105728095Y-69795295D02*
X105775714Y-69700057D01*
X105775714Y-69700057D02*
X105823333Y-69652438D01*
X105823333Y-69652438D02*
X105918571Y-69604819D01*
X105918571Y-69604819D02*
X106156666Y-69604819D01*
X106156666Y-69604819D02*
X106299523Y-69652438D01*
X107251904Y-70604819D02*
X106680476Y-70604819D01*
X106966190Y-70604819D02*
X106966190Y-69604819D01*
X106966190Y-69604819D02*
X106870952Y-69747676D01*
X106870952Y-69747676D02*
X106775714Y-69842914D01*
X106775714Y-69842914D02*
X106680476Y-69890533D01*
X125318095Y-108617200D02*
X125460952Y-108664819D01*
X125460952Y-108664819D02*
X125699047Y-108664819D01*
X125699047Y-108664819D02*
X125794285Y-108617200D01*
X125794285Y-108617200D02*
X125841904Y-108569580D01*
X125841904Y-108569580D02*
X125889523Y-108474342D01*
X125889523Y-108474342D02*
X125889523Y-108379104D01*
X125889523Y-108379104D02*
X125841904Y-108283866D01*
X125841904Y-108283866D02*
X125794285Y-108236247D01*
X125794285Y-108236247D02*
X125699047Y-108188628D01*
X125699047Y-108188628D02*
X125508571Y-108141009D01*
X125508571Y-108141009D02*
X125413333Y-108093390D01*
X125413333Y-108093390D02*
X125365714Y-108045771D01*
X125365714Y-108045771D02*
X125318095Y-107950533D01*
X125318095Y-107950533D02*
X125318095Y-107855295D01*
X125318095Y-107855295D02*
X125365714Y-107760057D01*
X125365714Y-107760057D02*
X125413333Y-107712438D01*
X125413333Y-107712438D02*
X125508571Y-107664819D01*
X125508571Y-107664819D02*
X125746666Y-107664819D01*
X125746666Y-107664819D02*
X125889523Y-107712438D01*
X126222857Y-107664819D02*
X126889523Y-107664819D01*
X126889523Y-107664819D02*
X126460952Y-108664819D01*
X144408095Y-70517200D02*
X144550952Y-70564819D01*
X144550952Y-70564819D02*
X144789047Y-70564819D01*
X144789047Y-70564819D02*
X144884285Y-70517200D01*
X144884285Y-70517200D02*
X144931904Y-70469580D01*
X144931904Y-70469580D02*
X144979523Y-70374342D01*
X144979523Y-70374342D02*
X144979523Y-70279104D01*
X144979523Y-70279104D02*
X144931904Y-70183866D01*
X144931904Y-70183866D02*
X144884285Y-70136247D01*
X144884285Y-70136247D02*
X144789047Y-70088628D01*
X144789047Y-70088628D02*
X144598571Y-70041009D01*
X144598571Y-70041009D02*
X144503333Y-69993390D01*
X144503333Y-69993390D02*
X144455714Y-69945771D01*
X144455714Y-69945771D02*
X144408095Y-69850533D01*
X144408095Y-69850533D02*
X144408095Y-69755295D01*
X144408095Y-69755295D02*
X144455714Y-69660057D01*
X144455714Y-69660057D02*
X144503333Y-69612438D01*
X144503333Y-69612438D02*
X144598571Y-69564819D01*
X144598571Y-69564819D02*
X144836666Y-69564819D01*
X144836666Y-69564819D02*
X144979523Y-69612438D01*
X145455714Y-70564819D02*
X145646190Y-70564819D01*
X145646190Y-70564819D02*
X145741428Y-70517200D01*
X145741428Y-70517200D02*
X145789047Y-70469580D01*
X145789047Y-70469580D02*
X145884285Y-70326723D01*
X145884285Y-70326723D02*
X145931904Y-70136247D01*
X145931904Y-70136247D02*
X145931904Y-69755295D01*
X145931904Y-69755295D02*
X145884285Y-69660057D01*
X145884285Y-69660057D02*
X145836666Y-69612438D01*
X145836666Y-69612438D02*
X145741428Y-69564819D01*
X145741428Y-69564819D02*
X145550952Y-69564819D01*
X145550952Y-69564819D02*
X145455714Y-69612438D01*
X145455714Y-69612438D02*
X145408095Y-69660057D01*
X145408095Y-69660057D02*
X145360476Y-69755295D01*
X145360476Y-69755295D02*
X145360476Y-69993390D01*
X145360476Y-69993390D02*
X145408095Y-70088628D01*
X145408095Y-70088628D02*
X145455714Y-70136247D01*
X145455714Y-70136247D02*
X145550952Y-70183866D01*
X145550952Y-70183866D02*
X145741428Y-70183866D01*
X145741428Y-70183866D02*
X145836666Y-70136247D01*
X145836666Y-70136247D02*
X145884285Y-70088628D01*
X145884285Y-70088628D02*
X145931904Y-69993390D01*
D11*
%TO.C,SW1*%
X92200000Y-53400000D02*
X92800000Y-53400000D01*
X92500000Y-53700000D02*
X92200000Y-53400000D01*
X92800000Y-53400000D02*
X92500000Y-53700000D01*
X93900000Y-51700000D02*
X93900000Y-63400000D01*
X98000000Y-51700000D02*
X93900000Y-51700000D01*
X98000000Y-63400000D02*
X93900000Y-63400000D01*
X99500000Y-57500000D02*
X100500000Y-57500000D01*
X100000000Y-57000000D02*
X100000000Y-58000000D01*
X102000000Y-51600000D02*
X106100000Y-51600000D01*
X106100000Y-51600000D02*
X106100000Y-54200000D01*
X106100000Y-56200000D02*
X106100000Y-58800000D01*
X106100000Y-60800000D02*
X106100000Y-63400000D01*
X106100000Y-63400000D02*
X102000000Y-63400000D01*
X103000000Y-57500000D02*
G75*
G02*
X97000000Y-57500000I-3000000J0D01*
G01*
X97000000Y-57500000D02*
G75*
G02*
X103000000Y-57500000I3000000J0D01*
G01*
%TO.C,S14*%
X157070000Y-90070000D02*
X157070000Y-104270000D01*
X157070000Y-104270000D02*
X171270000Y-104270000D01*
X171270000Y-90070000D02*
X157070000Y-90070000D01*
X171270000Y-104270000D02*
X171270000Y-90070000D01*
%TO.C,S2*%
X99970000Y-90160000D02*
X99970000Y-104360000D01*
X99970000Y-104360000D02*
X114170000Y-104360000D01*
X114170000Y-90160000D02*
X99970000Y-90160000D01*
X114170000Y-104360000D02*
X114170000Y-90160000D01*
%TO.C,S11*%
X138020000Y-109110000D02*
X138020000Y-123310000D01*
X138020000Y-123310000D02*
X152220000Y-123310000D01*
X152220000Y-109110000D02*
X138020000Y-109110000D01*
X152220000Y-123310000D02*
X152220000Y-109110000D01*
%TO.C,S10*%
X138020000Y-90110000D02*
X138020000Y-104310000D01*
X138020000Y-104310000D02*
X152220000Y-104310000D01*
X152220000Y-90110000D02*
X138020000Y-90110000D01*
X152220000Y-104310000D02*
X152220000Y-90110000D01*
%TO.C,S5*%
X118970000Y-71050000D02*
X118970000Y-85250000D01*
X118970000Y-85250000D02*
X133170000Y-85250000D01*
X133170000Y-71050000D02*
X118970000Y-71050000D01*
X133170000Y-85250000D02*
X133170000Y-71050000D01*
%TO.C,S15*%
X157070000Y-109070000D02*
X157070000Y-123270000D01*
X157070000Y-123270000D02*
X171270000Y-123270000D01*
X171270000Y-109070000D02*
X157070000Y-109070000D01*
X171270000Y-123270000D02*
X171270000Y-109070000D01*
%TO.C,S16*%
X157070000Y-128110000D02*
X157070000Y-142310000D01*
X157070000Y-142310000D02*
X171270000Y-142310000D01*
X171270000Y-128110000D02*
X157070000Y-128110000D01*
X171270000Y-142310000D02*
X171270000Y-128110000D01*
%TO.C,S13*%
X157070000Y-71010000D02*
X157070000Y-85210000D01*
X157070000Y-85210000D02*
X171270000Y-85210000D01*
X171270000Y-71010000D02*
X157070000Y-71010000D01*
X171270000Y-85210000D02*
X171270000Y-71010000D01*
%TO.C,S8*%
X118980000Y-128150000D02*
X118980000Y-142350000D01*
X118980000Y-142350000D02*
X133180000Y-142350000D01*
X133180000Y-128150000D02*
X118980000Y-128150000D01*
X133180000Y-142350000D02*
X133180000Y-128150000D01*
%TO.C,S3*%
X99970000Y-109160000D02*
X99970000Y-123360000D01*
X99970000Y-123360000D02*
X114170000Y-123360000D01*
X114170000Y-109160000D02*
X99970000Y-109160000D01*
X114170000Y-123360000D02*
X114170000Y-109160000D01*
%TO.C,S4*%
X99970000Y-128200000D02*
X99970000Y-142400000D01*
X99970000Y-142400000D02*
X114170000Y-142400000D01*
X114170000Y-128200000D02*
X99970000Y-128200000D01*
X114170000Y-142400000D02*
X114170000Y-128200000D01*
%TO.C,S12*%
X138020000Y-128150000D02*
X138020000Y-142350000D01*
X138020000Y-142350000D02*
X152220000Y-142350000D01*
X152220000Y-128150000D02*
X138020000Y-128150000D01*
X152220000Y-142350000D02*
X152220000Y-128150000D01*
%TO.C,S6*%
X118980000Y-90110000D02*
X118980000Y-104310000D01*
X118980000Y-104310000D02*
X133180000Y-104310000D01*
X133180000Y-90110000D02*
X118980000Y-90110000D01*
X133180000Y-104310000D02*
X133180000Y-90110000D01*
%TO.C,S1*%
X99970000Y-71100000D02*
X99970000Y-85300000D01*
X99970000Y-85300000D02*
X114170000Y-85300000D01*
X114170000Y-71100000D02*
X99970000Y-71100000D01*
X114170000Y-85300000D02*
X114170000Y-71100000D01*
%TO.C,S7*%
X118980000Y-109110000D02*
X118980000Y-123310000D01*
X118980000Y-123310000D02*
X133180000Y-123310000D01*
X133180000Y-109110000D02*
X118980000Y-109110000D01*
X133180000Y-123310000D02*
X133180000Y-109110000D01*
%TO.C,S9*%
X138070000Y-71010000D02*
X138070000Y-85210000D01*
X138070000Y-85210000D02*
X152270000Y-85210000D01*
X152270000Y-71010000D02*
X138070000Y-71010000D01*
X152270000Y-85210000D02*
X152270000Y-71010000D01*
%TD*%
M02*
